<?xml version="1.0" encoding="UTF-8" standalone="no"?>
<!-- Created with Inkscape (http://www.inkscape.org/) -->

<svg
   width="82.298981"
   height="18.856201"
   viewBox="0 0 82.298981 18.856201"
   version="1.1"
   id="svg5"
   xml:space="preserve"
   inkscape:version="1.2 (1:1.2.1+202207142221+cd75a1ee6d)"
   sodipodi:docname="book-green.svg"
   inkscape:export-filename="octopus-with-one-stack-of-books.svg"
   inkscape:export-xdpi="96"
   inkscape:export-ydpi="96"
   xmlns:inkscape="http://www.inkscape.org/namespaces/inkscape"
   xmlns:sodipodi="http://sodipodi.sourceforge.net/DTD/sodipodi-0.dtd"
   xmlns="http://www.w3.org/2000/svg"
   xmlns:svg="http://www.w3.org/2000/svg"><sodipodi:namedview
     id="namedview7"
     pagecolor="#ffffff"
     bordercolor="#ffffff"
     borderopacity="1"
     inkscape:showpageshadow="true"
     inkscape:pageopacity="1"
     inkscape:pagecheckerboard="0"
     inkscape:deskcolor="#ffffff"
     inkscape:document-units="px"
     showgrid="false"
     inkscape:zoom="3.6203867"
     inkscape:cx="92.945872"
     inkscape:cy="62.562378"
     inkscape:window-width="2560"
     inkscape:window-height="1380"
     inkscape:window-x="0"
     inkscape:window-y="788"
     inkscape:window-maximized="1"
     inkscape:current-layer="layer2"
     showborder="false"
     borderlayer="true" /><defs
     id="defs2" /><g
     inkscape:groupmode="layer"
     id="layer2"
     inkscape:label="Octopus"
     transform="translate(-702.84236,-654.7998)"><g
       id="g5705"
       transform="matrix(0.18749107,0,0,0.27323185,768.99519,479.5696)"
       inkscape:label="Green Book"
       style="display:inline"
       inkscape:export-filename="./book-green.svg"
       inkscape:export-xdpi="96"
       inkscape:export-ydpi="96"><path
         id="path5691"
         style="display:inline;opacity:1;fill:#10b981;stroke:#000000;stroke-width:0"
         d="m -266.0918,641.32422 c -22.76949,0 -41.09961,15.38942 -41.09961,34.50586 0,19.11643 18.33012,34.50586 41.09961,34.50586 H 41.091797 V 698.47852 H -179.78711 c -17.70902,0 -31.96484,-10.10099 -31.96484,-22.64844 0,-12.54744 14.25582,-22.64844 31.96484,-22.64844 H 41.091797 v -11.85742 z" /><path
         id="path5699"
         style="opacity:1;fill:#047857;stroke:#000000;stroke-width:0"
         d="m -216.59961,641.32422 c -19.11644,0 -34.50781,15.38942 -34.50781,34.50586 0,19.11643 15.39137,34.50586 34.50781,34.50586 H 41.298828 V 698.47852 H -179.78711 c -17.70902,0 -31.96484,-10.10099 -31.96484,-22.64844 0,-12.54744 14.25582,-22.64844 31.96484,-22.64844 H 41.298828 v -11.85742 z" /><path
         id="path5701"
         style="opacity:1;fill:#ffffff;stroke:#000000;stroke-width:0"
         d="m -200.59669,653.18211 c -17.70904,0 -31.96484,10.10098 -31.96484,22.64843 0,12.54746 14.2558,22.64844 31.96484,22.64844 H 33.567373 c -1.472992,-1.48415 -2.535156,-5.58908 -2.535156,-10.50391 v -25.73242 c 0,-3.75412 0.621167,-7.04571 1.568359,-9.06054 z" /><path
         id="path5703"
         style="opacity:0.1;fill:#000000;stroke:#000000;stroke-width:0;stroke-linecap:round;stroke-dasharray:none"
         d="m -201.45995,653.18211 c -12.16601,0 -22.70472,4.71564 -28.16994,11.69921 H 31.556449 v -2.63867 c 0,-3.75412 0.624893,-7.04571 1.577767,-9.06054 z" /></g></g></svg>
