<?xml version="1.0" encoding="UTF-8" standalone="no"?>
<!-- Created with Inkscape (http://www.inkscape.org/) -->

<svg
   width="76.947624"
   height="18.916624"
   viewBox="0 0 76.947625 18.916624"
   version="1.1"
   id="svg5"
   xml:space="preserve"
   inkscape:version="1.2 (1:1.2+202206011326+fc4e4096c5)"
   sodipodi:docname="book-only-4.svg"
   inkscape:export-filename="octopus-with-one-stack-of-books.svg"
   inkscape:export-xdpi="96"
   inkscape:export-ydpi="96"
   xmlns:inkscape="http://www.inkscape.org/namespaces/inkscape"
   xmlns:sodipodi="http://sodipodi.sourceforge.net/DTD/sodipodi-0.dtd"
   xmlns="http://www.w3.org/2000/svg"
   xmlns:svg="http://www.w3.org/2000/svg"><sodipodi:namedview
     id="namedview7"
     pagecolor="#ffffff"
     bordercolor="#ffffff"
     borderopacity="1"
     inkscape:showpageshadow="true"
     inkscape:pageopacity="1"
     inkscape:pagecheckerboard="0"
     inkscape:deskcolor="#ffffff"
     inkscape:document-units="px"
     showgrid="false"
     inkscape:zoom="3.6203867"
     inkscape:cx="92.393445"
     inkscape:cy="172.49539"
     inkscape:window-width="2560"
     inkscape:window-height="1380"
     inkscape:window-x="0"
     inkscape:window-y="788"
     inkscape:window-maximized="1"
     inkscape:current-layer="layer2"
     showborder="false"
     borderlayer="true" /><defs
     id="defs2" /><g
     inkscape:groupmode="layer"
     id="layer2"
     inkscape:label="Octopus"
     transform="translate(-541.37744,-637.59276)"><g
       id="g5735"
       inkscape:label="Yellow Book"
       transform="matrix(0.22080554,0,0,0.27409764,491.78033,453.16638)"
       style="display:inline"
       inkscape:export-filename="./book-yellow.svg"
       inkscape:export-xdpi="96"
       inkscape:export-ydpi="96"><path
         id="path5727"
         style="fill:#eab308;stroke:#000000;stroke-width:0"
         d="m 265.71491,672.84921 c -22.76946,0 -41.09597,15.39312 -41.09597,34.50954 0,19.11641 18.32651,34.50242 41.09597,34.50242 H 572.8998 V 730.00408 H 352.02 c -17.70901,0 -31.96747,-10.09789 -31.96747,-22.64533 0,-12.54743 14.25846,-22.65246 31.96747,-22.65246 h 220.8798 v -11.85708 z" /><path
         id="path5729"
         style="fill:#a16207;stroke:#000000;stroke-width:0"
         d="m 315.20643,672.85167 c -19.11644,0 -34.50781,15.38942 -34.50781,34.50586 0,19.11643 15.39137,34.50586 34.50781,34.50586 H 573.10487 V 730.00597 H 352.01893 c -17.70902,0 -31.96484,-10.10099 -31.96484,-22.64844 0,-12.54744 14.25582,-22.64844 31.96484,-22.64844 h 221.08594 v -11.85742 z" /><path
         id="path5731"
         style="fill:#ffffff;stroke:#000000;stroke-width:0"
         d="m 331.20935,684.70956 c -17.70904,0 -31.96484,10.10098 -31.96484,22.64843 0,12.54746 14.2558,22.64844 31.96484,22.64844 h 234.16406 c -1.47299,-1.48415 -2.53515,-5.58908 -2.53515,-10.50391 V 693.7701 c 0,-3.75412 0.62116,-7.04571 1.56836,-9.06054 z" /><path
         id="path5733"
         style="opacity:0.1;fill:#000000;stroke:#000000;stroke-width:0;stroke-linecap:round;stroke-dasharray:none"
         d="m 330.34609,684.70956 c -12.16601,0 -22.70472,4.71564 -28.16994,11.69921 h 261.18634 v -2.63867 c 0,-3.75412 0.62489,-7.04571 1.57777,-9.06054 z" /></g></g></svg>
