<?xml version="1.0" encoding="UTF-8" standalone="no"?>
<!-- Created with Inkscape (http://www.inkscape.org/) -->

<svg
   viewBox="0 0 250 250"
   version="1.1"
   id="svg5"
   xml:space="preserve"
   inkscape:version="1.2 (1:1.2.1+202207142221+cd75a1ee6d)"
   sodipodi:docname="octopus-with-books-on-circle-no-border-3.svg"
   inkscape:export-filename="octopus-with-one-stack-of-books.svg"
   inkscape:export-xdpi="96"
   inkscape:export-ydpi="96"
   xmlns:inkscape="http://www.inkscape.org/namespaces/inkscape"
   xmlns:sodipodi="http://sodipodi.sourceforge.net/DTD/sodipodi-0.dtd"
   xmlns="http://www.w3.org/2000/svg"
   xmlns:svg="http://www.w3.org/2000/svg"><sodipodi:namedview
     id="namedview7"
     pagecolor="#ffffff"
     bordercolor="#ffffff"
     borderopacity="1"
     inkscape:showpageshadow="true"
     inkscape:pageopacity="1"
     inkscape:pagecheckerboard="0"
     inkscape:deskcolor="#ffffff"
     inkscape:document-units="px"
     showgrid="false"
     inkscape:zoom="1.8101934"
     inkscape:cx="86.731066"
     inkscape:cy="99.160678"
     inkscape:window-width="1281"
     inkscape:window-height="1380"
     inkscape:window-x="0"
     inkscape:window-y="788"
     inkscape:window-maximized="0"
     inkscape:current-layer="layer2-4"
     showborder="false"
     borderlayer="true" /><defs
     id="defs2" /><g
     inkscape:groupmode="layer"
     id="layer2-4"
     inkscape:label="Octopus 1"
     transform="translate(-516.88501,-531.86089)"><circle
       style="opacity:1;fill:#e0f2fe;stroke:#000000;stroke-width:0.000691097;stroke-linecap:round;stroke-dasharray:none"
       id="path4641-8"
       cx="641.88501"
       cy="656.8609"
       inkscape:label="Background"
       inkscape:export-filename="./octopus-with-books-on-circle-no-border-2.svg"
       inkscape:export-xdpi="96"
       inkscape:export-ydpi="96"
       r="124.99966" /><g
       inkscape:groupmode="layer"
       id="layer3-7"
       inkscape:label="Books Bottom"
       transform="translate(-6.5170085,-7.1973557)"><g
         id="g4157-1"
         transform="matrix(0.25321719,0,0,0.2695708,654.01052,525.38613)"
         inkscape:label="Red Book"><path
           id="path4149-7"
           style="opacity:1;fill:#e11d48;stroke:#000000;stroke-width:0"
           d="m -266.0918,641.32422 c -22.76949,0 -41.09961,15.38942 -41.09961,34.50586 0,19.11643 18.33012,34.50586 41.09961,34.50586 H 41.091797 V 698.47852 H -179.78711 c -17.70902,0 -31.96484,-10.10099 -31.96484,-22.64844 0,-12.54744 14.25582,-22.64844 31.96484,-22.64844 H 41.091797 v -11.85742 z" /><path
           id="path4151-2"
           style="opacity:1;fill:#be123c;stroke:#000000;stroke-width:0"
           d="m -216.59961,641.32422 c -19.11644,0 -34.50781,15.38942 -34.50781,34.50586 0,19.11643 15.39137,34.50586 34.50781,34.50586 H 41.298828 V 698.47852 H -179.78711 c -17.70902,0 -31.96484,-10.10099 -31.96484,-22.64844 0,-12.54744 14.25582,-22.64844 31.96484,-22.64844 H 41.298828 v -11.85742 z" /><path
           id="path4153-7"
           style="opacity:1;fill:#ffffff;stroke:#000000;stroke-width:0"
           d="m -200.59669,653.18211 c -17.70904,0 -31.96484,10.10098 -31.96484,22.64843 0,12.54746 14.2558,22.64844 31.96484,22.64844 H 33.567373 c -1.472992,-1.48415 -2.535156,-5.58908 -2.535156,-10.50391 v -25.73242 c 0,-3.75412 0.621167,-7.04571 1.568359,-9.06054 z" /><path
           id="path4155-2"
           style="opacity:0.1;fill:#000000;stroke:#000000;stroke-width:0;stroke-linecap:round;stroke-dasharray:none"
           d="m -201.45995,653.18211 c -12.16601,0 -22.70472,4.71564 -28.16994,11.69921 H 31.556449 v -2.63867 c 0,-3.75412 0.624893,-7.04571 1.577767,-9.06054 z" /></g><g
         id="g4261-2"
         inkscape:label="Purple Book"
         transform="matrix(0.22080554,0,0,0.27409764,525.15938,532.36693)"><path
           id="path4253-6"
           style="fill:#c026d3;stroke:#000000;stroke-width:0"
           d="m 265.71424,672.85167 c -22.76949,0 -41.09961,15.38942 -41.09961,34.50586 0,19.11643 18.33012,34.50586 41.09961,34.50586 h 307.1836 V 730.00597 H 352.01893 c -17.70902,0 -31.96484,-10.10099 -31.96484,-22.64844 0,-12.54744 14.25582,-22.64844 31.96484,-22.64844 h 220.87891 v -11.85742 z" /><path
           id="path4255-1"
           style="fill:#86198f;stroke:#000000;stroke-width:0"
           d="m 315.20643,672.85167 c -19.11644,0 -34.50781,15.38942 -34.50781,34.50586 0,19.11643 15.39137,34.50586 34.50781,34.50586 H 573.10487 V 730.00597 H 352.01893 c -17.70902,0 -31.96484,-10.10099 -31.96484,-22.64844 0,-12.54744 14.25582,-22.64844 31.96484,-22.64844 h 221.08594 v -11.85742 z" /><path
           id="path4257-0"
           style="fill:#ffffff;stroke:#000000;stroke-width:0"
           d="m 331.20935,684.70956 c -17.70904,0 -31.96484,10.10098 -31.96484,22.64843 0,12.54746 14.2558,22.64844 31.96484,22.64844 h 234.16406 c -1.47299,-1.48415 -2.53515,-5.58908 -2.53515,-10.50391 V 693.7701 c 0,-3.75412 0.62116,-7.04571 1.56836,-9.06054 z" /><path
           id="path4259-6"
           style="opacity:0.1;fill:#000000;stroke:#000000;stroke-width:0;stroke-linecap:round;stroke-dasharray:none"
           d="m 330.34609,684.70956 c -12.16601,0 -22.70472,4.71564 -28.16994,11.69921 h 261.18634 v -2.63867 c 0,-3.75412 0.62489,-7.04571 1.57777,-9.06054 z" /></g><g
         id="g5705-1"
         transform="matrix(0.22105251,0,0,0.27323185,642.05256,504.38329)"
         inkscape:label="Green Book"
         style="display:inline"><g
           id="g5697-5"
           style="fill:#10b981"><g
             id="g5695-9"
             style="fill:#10b981"><g
               id="g5693-4"
               style="fill:#10b981"><path
                 id="path5691-9"
                 style="opacity:1;fill:#10b981;stroke:#000000;stroke-width:0"
                 d="m -266.0918,641.32422 c -22.76949,0 -41.09961,15.38942 -41.09961,34.50586 0,19.11643 18.33012,34.50586 41.09961,34.50586 H 41.091797 V 698.47852 H -179.78711 c -17.70902,0 -31.96484,-10.10099 -31.96484,-22.64844 0,-12.54744 14.25582,-22.64844 31.96484,-22.64844 H 41.091797 v -11.85742 z" /></g></g></g><path
           id="path5699-0"
           style="opacity:1;fill:#047857;stroke:#000000;stroke-width:0"
           d="m -216.59961,641.32422 c -19.11644,0 -34.50781,15.38942 -34.50781,34.50586 0,19.11643 15.39137,34.50586 34.50781,34.50586 H 41.298828 V 698.47852 H -179.78711 c -17.70902,0 -31.96484,-10.10099 -31.96484,-22.64844 0,-12.54744 14.25582,-22.64844 31.96484,-22.64844 H 41.298828 v -11.85742 z" /><path
           id="path5701-9"
           style="opacity:1;fill:#ffffff;stroke:#000000;stroke-width:0"
           d="m -200.59669,653.18211 c -17.70904,0 -31.96484,10.10098 -31.96484,22.64843 0,12.54746 14.2558,22.64844 31.96484,22.64844 H 33.567373 c -1.472992,-1.48415 -2.535156,-5.58908 -2.535156,-10.50391 v -25.73242 c 0,-3.75412 0.621167,-7.04571 1.568359,-9.06054 z" /><path
           id="path5703-1"
           style="opacity:0.1;fill:#000000;stroke:#000000;stroke-width:0;stroke-linecap:round;stroke-dasharray:none"
           d="m -201.45995,653.18211 c -12.16601,0 -22.70472,4.71564 -28.16994,11.69921 H 31.556449 v -2.63867 c 0,-3.75412 0.624893,-7.04571 1.577767,-9.06054 z" /></g></g><path
       style="opacity:1;fill:#4f46e5;stroke:none;stroke-width:0.63874;stroke-dasharray:none;stroke-opacity:1"
       d="m 648.51077,672.05344 c -20.94223,0.13641 -49.46728,-3.00664 -50.12894,-4.15376 -0.66166,-1.14712 -24.44709,6.09267 -18.71956,16.6115 3.91009,7.18102 34.59882,17.52554 38.72519,17.93188 4.75667,0.46841 5.65183,6.5428 -0.8909,6.95313 -14.06231,0.88192 -45.68205,-10.35387 -49.70665,-19.77438 -4.0246,-9.42051 -3.32803,-23.17569 30.51808,-29.85957 0.89312,-12.21854 -2.98898,-34.04668 -2.98898,-34.04668 0,0 -17.38508,-42.81889 28.03748,-46.62642 13.40672,-1.12381 40.01751,8.91154 31.98431,41.77552 0,0 -2.39729,18.19382 -2.23292,18.30034 52.18476,55.82404 79.04787,5.98492 36.57077,0.13531 -6.83654,-0.94147 -7.02338,-7.58762 0.45484,-7.81965 12.7293,-0.39496 42.98342,16.59956 28.5734,35.15531 -14.41002,18.55575 -45.20165,5.29761 -54.14021,-2.82803 11.40078,44.4445 45.25699,33.49884 53.97441,33.7766 8.71741,0.27776 7.67123,7.58221 1.68586,9.12315 -5.98537,1.54094 -39.13662,4.41534 -51.89863,-8.74917 -12.76201,-13.16451 -9.56841,-20.3053 -19.81755,-25.90508 z"
       id="path1430-7"
       sodipodi:nodetypes="cccsszcszzcsszczzzc"
       inkscape:label="Body" /><path
       id="path4739-9"
       style="opacity:1;fill:#4f46e5;stroke:none;stroke-width:0.63874;stroke-dasharray:none;stroke-opacity:1"
       inkscape:label="Arm Over Book"
       d="m 650.1766,665.38369 c -0.14284,28.21082 -5.76112,44.57677 -25.91618,57.91679 -2.56468,3.4245 3.55779,10.06699 8.69918,7.17774 17.60784,-13.65648 22.59248,-28.81647 26.35843,-48.31782 -3.60624,-7.38143 -3.62508,-5.70183 -9.14143,-16.77671 z"
       sodipodi:nodetypes="ccccc" /><g
       inkscape:groupmode="layer"
       id="g5737-7"
       inkscape:label="Books Top"
       transform="translate(-6.5170085,-7.1973557)"><g
         id="g5735-1"
         inkscape:label="Yellow Book"
         transform="matrix(0.22080554,0,0,0.27409764,531.14085,476.62797)"
         style="display:inline"><path
           id="path5727-5"
           style="fill:#eab308;stroke:#000000;stroke-width:0"
           d="m 265.71491,672.84921 c -22.76946,0 -41.09597,15.39312 -41.09597,34.50954 0,19.11641 18.32651,34.50242 41.09597,34.50242 H 572.8998 V 730.00408 H 352.02 c -17.70901,0 -31.96747,-10.09789 -31.96747,-22.64533 0,-12.54743 14.25846,-22.65246 31.96747,-22.65246 h 220.8798 v -11.85708 z" /><path
           id="path5729-9"
           style="fill:#a16207;stroke:#000000;stroke-width:0"
           d="m 315.20643,672.85167 c -19.11644,0 -34.50781,15.38942 -34.50781,34.50586 0,19.11643 15.39137,34.50586 34.50781,34.50586 H 573.10487 V 730.00597 H 352.01893 c -17.70902,0 -31.96484,-10.10099 -31.96484,-22.64844 0,-12.54744 14.25582,-22.64844 31.96484,-22.64844 h 221.08594 v -11.85742 z" /><path
           id="path5731-7"
           style="fill:#ffffff;stroke:#000000;stroke-width:0"
           d="m 331.20935,684.70956 c -17.70904,0 -31.96484,10.10098 -31.96484,22.64843 0,12.54746 14.2558,22.64844 31.96484,22.64844 h 234.16406 c -1.47299,-1.48415 -2.53515,-5.58908 -2.53515,-10.50391 V 693.7701 c 0,-3.75412 0.62116,-7.04571 1.56836,-9.06054 z" /><path
           id="path5733-7"
           style="opacity:0.1;fill:#000000;stroke:#000000;stroke-width:0;stroke-linecap:round;stroke-dasharray:none"
           d="m 330.34609,684.70956 c -12.16601,0 -22.70472,4.71564 -28.16994,11.69921 h 261.18634 v -2.63867 c 0,-3.75412 0.62489,-7.04571 1.57777,-9.06054 z" /></g></g><g
       inkscape:groupmode="layer"
       id="layer4-6"
       inkscape:label="Eyes"><g
         id="g332"
         inkscape:label="Right"
         transform="matrix(0.96264358,0,0,1.0000008,21.71375,3.5808954)"><ellipse
           style="opacity:1;fill:#ffffff;stroke:#000000;stroke-width:0.000691097;stroke-linecap:round;stroke-dasharray:none"
           id="ellipse328"
           inkscape:label="eye white"
           ry="8.6002159"
           rx="9.9015675"
           cy="626.16669"
           cx="643.88367" /><ellipse
           style="opacity:1;fill:#000000;stroke:#000000;stroke-width:0.000712573;stroke-linecap:round;stroke-dasharray:none"
           id="ellipse330"
           cx="646.03351"
           cy="628.03992"
           rx="5.2541623"
           ry="4.9239888"
           inkscape:label="pupil" /></g><g
         id="g470"
         inkscape:label="Right"
         transform="matrix(0.96264358,0,0,1.0000008,-5.2529229,3.5808954)"><ellipse
           style="opacity:1;fill:#ffffff;stroke:#000000;stroke-width:0.000691097;stroke-linecap:round;stroke-dasharray:none"
           id="ellipse466"
           inkscape:label="eye white"
           ry="8.6002159"
           rx="9.9015675"
           cy="626.16669"
           cx="643.88367" /><ellipse
           style="opacity:1;fill:#000000;stroke:#000000;stroke-width:0.000716396;stroke-linecap:round;stroke-dasharray:none"
           id="ellipse468"
           cx="646.03351"
           cy="627.987"
           rx="5.2541604"
           ry="4.9769568"
           inkscape:label="pupil" /></g></g></g></svg>
