<?xml version="1.0" encoding="UTF-8" standalone="no"?>
<!-- Created with Inkscape (http://www.inkscape.org/) -->

<svg
   width="76.948578"
   height="18.915951"
   viewBox="0 0 76.948578 18.915951"
   version="1.1"
   id="svg5"
   xml:space="preserve"
   inkscape:version="1.2 (1:1.2.1+202207142221+cd75a1ee6d)"
   sodipodi:docname="book-purple.svg"
   inkscape:export-filename="octopus-with-one-stack-of-books.svg"
   inkscape:export-xdpi="96"
   inkscape:export-ydpi="96"
   xmlns:inkscape="http://www.inkscape.org/namespaces/inkscape"
   xmlns:sodipodi="http://sodipodi.sourceforge.net/DTD/sodipodi-0.dtd"
   xmlns="http://www.w3.org/2000/svg"
   xmlns:svg="http://www.w3.org/2000/svg"><sodipodi:namedview
     id="namedview7"
     pagecolor="#ffffff"
     bordercolor="#ffffff"
     borderopacity="1"
     inkscape:showpageshadow="true"
     inkscape:pageopacity="1"
     inkscape:pagecheckerboard="0"
     inkscape:deskcolor="#ffffff"
     inkscape:document-units="px"
     showgrid="false"
     inkscape:zoom="3.6203867"
     inkscape:cx="-3.7288834"
     inkscape:cy="62.562378"
     inkscape:window-width="1280"
     inkscape:window-height="1380"
     inkscape:window-x="0"
     inkscape:window-y="788"
     inkscape:window-maximized="0"
     inkscape:current-layer="layer2"
     showborder="false"
     borderlayer="true" /><defs
     id="defs2" /><g
     inkscape:groupmode="layer"
     id="layer2"
     inkscape:label="Octopus"
     transform="translate(-535.39501,-693.3324)"><g
       id="g4261"
       inkscape:label="Purple Book"
       transform="matrix(0.22545113,0,0,0.27409764,485.40941,508.90534)"
       inkscape:export-filename="./book-purple.svg"
       inkscape:export-xdpi="96"
       inkscape:export-ydpi="96"><path
         id="path4253"
         style="fill:#c026d3;stroke:#000000;stroke-width:0"
         d="m 265.71424,672.85167 c -22.76949,0 -41.09961,15.38942 -41.09961,34.50586 0,19.11643 18.33012,34.50586 41.09961,34.50586 h 307.1836 V 730.00597 H 352.01893 c -17.70902,0 -31.96484,-10.10099 -31.96484,-22.64844 0,-12.54744 14.25582,-22.64844 31.96484,-22.64844 h 220.87891 v -11.85742 z" /><path
         id="path4255"
         style="fill:#86198f;stroke:#000000;stroke-width:0"
         d="m 315.20643,672.85167 c -19.11644,0 -34.50781,15.38942 -34.50781,34.50586 0,19.11643 15.39137,34.50586 34.50781,34.50586 H 573.10487 V 730.00597 H 352.01893 c -17.70902,0 -31.96484,-10.10099 -31.96484,-22.64844 0,-12.54744 14.25582,-22.64844 31.96484,-22.64844 h 221.08594 v -11.85742 z" /><path
         id="path4257"
         style="fill:#ffffff;stroke:#000000;stroke-width:0"
         d="m 331.20935,684.70956 c -17.70904,0 -31.96484,10.10098 -31.96484,22.64843 0,12.54746 14.2558,22.64844 31.96484,22.64844 h 234.16406 c -1.47299,-1.48415 -2.53515,-5.58908 -2.53515,-10.50391 V 693.7701 c 0,-3.75412 0.62116,-7.04571 1.56836,-9.06054 z" /><path
         id="path4259"
         style="opacity:0.1;fill:#000000;stroke:#000000;stroke-width:0;stroke-linecap:round;stroke-dasharray:none"
         d="m 330.34609,684.70956 c -12.16601,0 -22.70472,4.71564 -28.16994,11.69921 h 261.18634 v -2.63867 c 0,-3.75412 0.62489,-7.04571 1.57777,-9.06054 z" /></g></g></svg>
